<?xml version="1.0" encoding="UTF-8"?>
<svg id="Capa_1" xmlns="http://www.w3.org/2000/svg" version="1.1" viewBox="0 0 406 114">
  <!-- Generator: Adobe Illustrator 29.0.0, SVG Export Plug-In . SVG Version: 2.1.0 Build 186)  -->
  <defs>
    <style>
      .st0, .st1 {
        fill: #fff;
      }

      .st1 {
        fill-rule: evenodd;
      }
    </style>
  </defs>
  <path class="st1" d="M231.8,16.7c1.1-.1,2.3-.3,3.4-.4,2.2-.2,4.4-.4,6.6-.5,2.1-.1,4.3-.2,6.4-.3.5,0,1.1,0,1.6,0,3.5,0,7,.3,10.2,1.5,5,1.8,8.2,5.2,9.2,10.3.9,4.3.3,8.4-2.3,12.1-1.4,2-3.3,3.5-5.5,4.7-.2.1-.4.2-.7.4.1.1.2.2.3.3,2.8,2.9,5,6.1,6.7,9.6,1.9,3.8,3.8,7.5,5.6,11.3.1.2.2.4.3.6-1.4.7-11.9,1.6-14.7,1.3,0-.2-.2-.4-.3-.5-1.6-3.3-3.1-6.7-4.8-10-1.4-2.8-3-5.5-4.9-8.1-.3-.5-.7-.7-1.2-.6-.7,0-1.4,0-2.2,0v18.7c-.5.2-12.7.2-13.8,0V16.7ZM245.6,38.4c1.4,0,2.6,0,3.9,0,1.1,0,2.1-.3,3-.8,1.2-.5,1.9-1.4,2.3-2.6.6-1.9.6-3.9.1-5.9-.4-1.4-1.3-2.4-2.8-2.8-.6-.2-1.2-.3-1.9-.3-1.2,0-2.4,0-3.6,0-.4,0-.7,0-1.1.1v12.2h0Z"/>
  <path class="st1" d="M318.2,16.7c1-.1,2.1-.3,3.1-.4,2.4-.2,4.8-.4,7.2-.6,1.3-.1,2.6-.1,4-.2,1,0,1.9,0,2.9,0,3.2,0,6.4.2,9.4,1.3,5.6,2,8.9,5.8,10.1,11.4.3,1.2.4,2.5.4,3.8.1,2.4,0,4.7-.7,7-1.9,6.4-6.1,10.5-13,12.1-2,.4-3.9.6-5.9.6h-3.5c0,.7,0,1.5,0,2.2v13.2h-14V16.7h0ZM332.2,40.9c.2,0,.4,0,.6,0,.9,0,1.9,0,2.8,0,2.8,0,4.6-1.4,5.3-4,.4-1.5.5-3.1.4-4.6,0-1.1-.1-2.3-.6-3.3-.6-1.6-1.8-2.7-3.6-2.9-1.3-.2-2.5-.1-3.8-.1-.4,0-.7,0-1.1,0v15h0Z"/>
  <path class="st1" d="M292.1,46.6v9.2c1,0,1.9,0,2.8,0h17.1c.4,1.1-.5,9.9-.9,11.2h-33.2c-.1-.4-.2-50.1,0-50.9h32.9c.3,1-.3,8.5-.9,11.2h-17.8c-.1.5-.2,7.3,0,8.2h13.1v11.1h-13.1Z"/>
  <path class="st1" d="M392.8,16.9c-.3,3.7-.6,7.4-1.5,11-.2,0-.3,0-.5,0-3.1-.7-6.1-1.2-9.3-1.5-.9,0-1.8-.2-2.7-.2-.8,0-1.5,0-2.3.2-1.6.3-2.5,1.3-2.8,2.8-.4,1.6.2,2.9,1.4,3.9,1.2,1,2.6,1.9,4.1,2.6,1.7.8,3.4,1.7,5.1,2.5,2.2,1,4.3,2.3,6,3.9,1.8,1.6,3.2,3.5,3.9,5.8.4,1.4.5,2.8.5,4.3,0,2.3-.5,4.5-1.5,6.7-1.7,3.3-4.4,5.6-7.9,7.1-2.1.9-4.4,1.4-6.7,1.7-2.1.3-4.2.3-6.3.2-4.4-.2-8.7-.8-12.8-2.4-.3,0-.5-.2-.8-.3.6-3.8,1.6-7.5,2.8-11.1.8.3,1.6.6,2.4.8,3.1,1,6.2,1.8,9.4,2.1,1,0,1.9.1,2.9.1,2.3,0,3.7-1.2,4.1-3.3.3-1.5-.2-2.8-1.4-3.9-1.2-1-2.6-1.8-4.1-2.5-1.7-.8-3.4-1.6-5.1-2.3-2.5-1.1-4.8-2.5-6.7-4.5-2.5-2.5-3.9-5.5-3.9-9.1,0-1.8.1-3.6.8-5.3,1.1-3.1,3.2-5.4,6-7.2,2.5-1.6,5.2-2.5,8.1-3,3.1-.6,6.2-.6,9.3-.5,3,.2,5.9.6,8.8,1.3.2,0,.4.1.7.2"/>
  <path class="st1" d="M12.7,16.7c1-.1,2-.3,3-.4,2.7-.2,5.4-.5,8.2-.6,2-.1,4.1-.2,6.1-.2,3.1,0,6.1.2,9,1.2,5.8,2,9.2,5.9,10.4,11.6.8,3.7.7,7.5-.4,11.1-1.9,6.2-6.2,10.1-12.9,11.6-1.9.4-3.8.6-5.7.6h-3.8v15.4h-13.9c-.1-.4-.2-49.4,0-50.3M26.6,40.9c.1,0,.2,0,.3,0,1.2,0,2.5,0,3.7,0,2.4-.2,4-1.4,4.7-3.6.4-1.3.5-2.6.6-4,0-1.3,0-2.6-.4-3.9-.6-2.2-2.3-3.5-4.6-3.5-1.2,0-2.5,0-3.8,0s-.3,0-.4,0v14.9h0Z"/>
  <path class="st1" d="M91,56c0,.2,0,.4,0,.6v4.1c0,.9-.2,1.8-.5,2.7-.7,2.1-2.3,3.5-4.5,4-2.3.6-4.7.5-7,0-1.7-.4-3-1.3-4-2.7-.2-.3-.4-.6-.6-.9-.4-.2-.7,0-1,.3-2.1,1.7-4.4,2.9-7.1,3.4-3.3.6-6.5.4-9.6-.8-3-1.2-4.9-3.4-5.7-6.4-.7-2.7-.8-5.5-.1-8.2.7-2.8,2.4-4.9,5.1-6.1,1.6-.7,3.3-1.1,5.1-1.4,2.5-.4,5.1-.5,7.6-.5.9,0,1.9,0,2.9-.1,0-.2,0-.4,0-.5,0-1.3,0-2.5,0-3.8,0-.4-.2-.6-.5-.7-1.1-.4-2.2-.6-3.3-.7-3.3-.3-6.7,0-9.9.9-.6.2-1.2.5-1.8.7,0,0-.2,0-.4,0-1.1-3.7-1.7-7.4-1.8-11.3,1.4-.3,2.7-.7,4-1,3.5-.7,7.1-.9,10.6-.7,3.9.2,7.8.9,11.4,2.4,1.3.5,2.5,1.2,3.7,1.9.4.3.6.5.6,1,0,6.2,0,12.4,0,18.6v3.3c0,.2,0,.5,0,.8.1.6.6,1,1.2,1.1.2,0,.5,0,.7,0h4.2c.1,0,.3,0,.5,0M71.7,51h-.5c-1.1,0-2.1,0-3.2.2-.8,0-1.6.2-2.4.3-.9.2-1.5.8-1.8,1.7-.4,1.4-.4,2.7,0,4.1.3.9,1,1.5,2,1.6.8.2,1.6,0,2.4,0,1.1-.1,2.1-.4,3.1-.8s.4-.3.4-.7c0-1.3,0-2.6,0-3.8v-2.5h0Z"/>
  <path class="st1" d="M172.3,11.3c0,3.6-.2,7.1-.7,10.6-.4,0-.7,0-1.1-.1-1.5-.1-2.9-.3-4.4-.4-.3,0-.5,0-.8,0-.7.1-1.2.5-1.4,1.1-.1.4-.2.8-.3,1.2,0,1.2,0,2.4,0,3.7.7,0,1.4,0,2.1,0h6.4c0,3.5-.2,7-.7,10.5-2.6,0-5.2,0-7.8,0v29h-13.1v-28.9h-4.5v-10.5h4.5v-.8c0-1.5,0-3,.2-4.5,1-5.6,5.2-9.9,11-11.1,2.2-.5,4.4-.4,6.6-.3,1.1,0,2.2.2,3.3.3.2,0,.4,0,.6.1"/>
  <path class="st1" d="M225.7,28.7c-.6,3.7-1.5,7.4-2.8,11.1-.3,0-.5-.2-.8-.3-2-.7-3.9-1.3-6-1.5-1.2-.1-2.4-.2-3.5.2-1.5.4-2.7,1.3-3.2,2.8-.3.8-.6,1.7-.7,2.6-.3,2.6-.3,5.2.1,7.8.1.6.3,1.2.5,1.8.6,1.9,2.1,3,4.2,3.3,2,.3,4,.1,5.9-.6,1.2-.4,2.3-.9,3.5-1.4.2,0,.4-.2.7-.3,1.3,3.7,2.1,7.4,2.7,11.3-.4.2-.7.3-1.1.5-2.1.8-4.3,1.3-6.5,1.6-3.8.6-7.5.3-11.1-.6-3-.8-5.7-2.2-8-4.3-2.1-2-3.4-4.5-4.1-7.2-.5-1.7-.7-3.5-.8-5.2-.2-2.4,0-4.8.3-7.2.6-4.1,2.2-7.8,5.1-10.8,2.6-2.7,5.8-4.2,9.5-5,2.5-.5,5-.5,7.6-.3,2.7.2,5.4.7,8,1.5.2,0,.3.1.5.2,0,0,0,0,.2.1"/>
  <path class="st1" d="M122.5,28.6c-.6,3.8-1.5,7.6-2.8,11.2-.3-.1-.6-.2-.8-.3-1.9-.7-3.9-1.3-6-1.5-1.2-.1-2.4-.2-3.5.2-1.6.4-2.6,1.3-3.2,2.7-.5,1.1-.7,2.3-.8,3.4-.2,2.1-.2,4.3.1,6.4.1.8.3,1.5.5,2.3.6,2,2.1,3.1,4.3,3.4,2.3.3,4.5,0,6.6-.8,1.1-.4,2.2-.9,3.4-1.4,1.2,3.6,2.1,7.4,2.7,11.2-.3.2-.7.3-1,.4-1.9.7-3.9,1.2-6,1.5-1.9.3-3.9.4-5.8.3-2.6-.1-5.2-.5-7.6-1.4-5.4-1.9-8.8-5.6-10.3-10.9-.8-2.9-1-5.8-.9-8.8,0-2.8.5-5.4,1.4-8,1-2.7,2.4-5.1,4.6-7.1,2.5-2.3,5.5-3.7,8.9-4.4,2.5-.5,5-.5,7.6-.3,2.7.2,5.4.7,7.9,1.5.2,0,.4.2.8.3"/>
  <path class="st1" d="M175.9,27.5h13c.1.5.2,38.5,0,39.4-.5.1-11.9.2-13,0-.1-.4-.2-38.4,0-39.4"/>
  <rect class="st0" x="128.1" y="27.5" width="13.1" height="39.4"/>
  <path class="st1" d="M134.6,24c-.7-.1-1.5-.1-2.2-.3-2.6-.6-4.1-2.2-4.8-4.6-.6-2.4,0-4.6,1.8-6.4.9-.9,2-1.4,3.2-1.7,1.3-.2,2.5-.2,3.8,0,2,.3,3.4,1.3,4.4,2.9,1.1,1.8,1.3,3.6.7,5.5-.8,2.6-2.8,4.3-5.8,4.5-.4,0-.8,0-1.2,0h0"/>
  <path class="st1" d="M182.4,24c-.7,0-1.4-.1-2.1-.2-2.6-.5-4.2-2.2-4.8-4.6-.6-2.5,0-4.7,1.8-6.5.8-.9,1.9-1.4,3.1-1.6,1.3-.3,2.6-.3,3.9,0,2.1.3,3.6,1.4,4.6,3.2,1.2,2.4,1.2,4.8-.3,7.1-1.1,1.7-2.8,2.5-4.9,2.6-.4,0-.8,0-1.2,0h0"/>
</svg>