<?xml version="1.0" encoding="UTF-8"?>
<svg id="Capa_1" xmlns="http://www.w3.org/2000/svg" viewBox="0 0 406 114">
  <defs>
    <style>
      .cls-1, .cls-2 {
        fill: #fff;
      }

      .cls-2 {
        fill-rule: evenodd;
      }
    </style>
  </defs>
  <g>
    <path class="cls-2" d="M231.82,16.69c1.15-.12,2.27-.26,3.38-.36,2.18-.19,4.37-.39,6.57-.52,2.13-.14,4.26-.19,6.39-.28.53-.02,1.05-.08,1.58-.08,3.49-.04,6.95.28,10.23,1.49,5,1.83,8.17,5.23,9.24,10.27.91,4.29.31,8.36-2.29,12.06-1.41,2-3.26,3.51-5.45,4.67-.21.11-.42.22-.68.37.1.13.16.25.27.35,2.76,2.87,4.95,6.11,6.7,9.62,1.87,3.76,3.75,7.52,5.62,11.27.1.2.2.42.29.63-1.36.65-11.92,1.6-14.7,1.3-.08-.17-.18-.36-.27-.54-1.59-3.35-3.13-6.71-4.76-10.05-1.38-2.82-3.02-5.51-4.89-8.06-.32-.45-.66-.66-1.24-.61-.69.06-1.4,0-2.17,0v18.67c-.52.15-12.72.21-13.82.07V16.69ZM245.65,38.37c1.36,0,2.63.01,3.91,0,1.07-.01,2.08-.28,3.04-.75,1.17-.55,1.94-1.42,2.29-2.62.57-1.94.61-3.9.1-5.85-.36-1.4-1.29-2.38-2.76-2.8-.6-.17-1.25-.27-1.88-.29-1.21-.05-2.42-.02-3.63,0-.37,0-.72.07-1.07.1v12.22Z"/>
    <path class="cls-2" d="M318.23,16.68c1.04-.12,2.07-.26,3.09-.35,2.41-.22,4.81-.44,7.23-.62,1.31-.1,2.63-.13,3.95-.18.96-.04,1.93-.06,2.9-.08,3.2-.04,6.37.21,9.41,1.3,5.57,2.01,8.88,5.84,10.14,11.36.28,1.23.39,2.48.44,3.75.1,2.38-.04,4.74-.7,7.05-1.86,6.43-6.14,10.53-13,12.08-1.95.44-3.94.64-5.94.62-1.15,0-2.29,0-3.52,0-.05.74-.02,1.47-.02,2.2,0,.74,0,1.47,0,2.21v10.99h-13.96V16.68ZM332.24,40.9c.22.01.41.04.61.04.93,0,1.85,0,2.77-.02,2.81-.04,4.64-1.43,5.33-4.02.41-1.52.45-3.07.43-4.63-.02-1.14-.14-2.27-.56-3.34-.63-1.64-1.84-2.68-3.64-2.91-1.26-.17-2.55-.11-3.83-.13-.36,0-.72.03-1.1.05v14.96Z"/>
    <path class="cls-2" d="M292.08,46.58v9.19c.95,0,1.88,0,2.82.01h17.14c.41,1.08-.49,9.95-.87,11.22h-33.2c-.13-.43-.17-50.12-.03-50.93h32.86c.27,1.04-.31,8.48-.88,11.22-.96,0-1.93,0-2.92,0-1,0-1.98,0-2.97,0h-11.87c-.14.5-.17,7.34-.04,8.16h13.07v11.12h-13.11Z"/>
    <path class="cls-2" d="M392.76,16.86c-.27,3.71-.63,7.38-1.51,11.02-.17-.01-.32-.02-.46-.04-3.07-.66-6.15-1.24-9.29-1.46-.9-.06-1.8-.18-2.7-.18-.77-.01-1.54.06-2.29.19-1.6.29-2.45,1.34-2.79,2.78-.37,1.56.18,2.86,1.42,3.89,1.25,1.05,2.65,1.87,4.13,2.58,1.71.84,3.42,1.65,5.14,2.47,2.19,1.05,4.27,2.28,6.04,3.9,1.79,1.64,3.25,3.48,3.93,5.81.41,1.41.54,2.85.5,4.3-.07,2.31-.47,4.55-1.54,6.65-1.68,3.33-4.39,5.62-7.9,7.1-2.14.9-4.38,1.38-6.68,1.68-2.1.27-4.22.32-6.33.22-4.39-.22-8.71-.76-12.82-2.37-.26-.1-.52-.22-.81-.34.58-3.8,1.56-7.48,2.78-11.14.83.29,1.59.57,2.36.82,3.07,1,6.2,1.75,9.42,2.06.96.09,1.94.14,2.9.11,2.26-.07,3.72-1.22,4.11-3.29.29-1.52-.16-2.84-1.38-3.87-1.23-1.04-2.62-1.83-4.09-2.53-1.7-.79-3.41-1.57-5.12-2.35-2.5-1.13-4.82-2.55-6.74-4.46-2.55-2.54-3.93-5.52-3.9-9.08.01-1.8.13-3.57.75-5.28,1.11-3.08,3.18-5.44,6.01-7.22,2.48-1.56,5.24-2.46,8.12-3.02,3.07-.6,6.17-.63,9.27-.47,2.96.16,5.9.58,8.77,1.33.21.06.42.12.68.19"/>
    <path class="cls-2" d="M12.69,16.69c1.03-.12,2.02-.26,3.03-.35,2.71-.23,5.44-.47,8.16-.65,2.04-.13,4.09-.19,6.14-.22,3.05-.04,6.07.2,8.98,1.2,5.78,1.98,9.24,5.91,10.44,11.61.78,3.72.7,7.47-.43,11.11-1.94,6.22-6.25,10.14-12.92,11.61-1.88.42-3.77.61-5.7.61h-3.75v15.38h-13.92c-.13-.45-.17-49.38-.03-50.29M26.64,40.9c.14.03.23.06.31.06,1.23-.02,2.47.02,3.7-.07,2.35-.16,3.97-1.44,4.67-3.58.41-1.3.54-2.63.56-3.99.02-1.3-.03-2.6-.4-3.87-.64-2.17-2.26-3.46-4.63-3.55-1.25-.05-2.51,0-3.76,0-.15,0-.29.06-.44.09v14.91Z"/>
    <path class="cls-2" d="M90.97,55.96c0,.23.03.39.03.56v4.1c0,.93-.15,1.84-.46,2.72-.74,2.12-2.28,3.46-4.53,4.03-2.32.57-4.66.54-6.99,0-1.7-.41-3.03-1.32-4.01-2.71-.2-.29-.39-.59-.59-.88-.43-.18-.72.05-1.01.29-2.06,1.67-4.39,2.88-7.06,3.39-3.27.61-6.5.45-9.59-.81-2.99-1.22-4.9-3.36-5.7-6.37-.72-2.74-.78-5.49-.14-8.25.65-2.83,2.4-4.86,5.14-6.1,1.6-.74,3.31-1.1,5.07-1.36,2.53-.38,5.08-.45,7.63-.53.94-.03,1.88-.08,2.86-.13.02-.19.05-.36.05-.52,0-1.27-.02-2.52.01-3.78,0-.41-.16-.6-.53-.74-1.05-.4-2.16-.6-3.28-.69-3.35-.27-6.69-.09-9.93.86-.63.18-1.23.45-1.84.68-.1.03-.21.05-.37.1-1.08-3.7-1.73-7.43-1.82-11.31,1.37-.33,2.68-.69,4.02-.96,3.51-.69,7.06-.94,10.64-.73,3.93.22,7.78.88,11.43,2.36,1.3.53,2.53,1.18,3.7,1.94.42.26.56.55.56,1.03-.02,6.2-.02,12.4-.02,18.6v3.35c.01.25.03.5.09.75.12.64.57.98,1.22,1.07.24.03.48.03.72.03,1.41,0,2.82,0,4.23,0,.13,0,.26.02.46.03M71.68,51.01c-.23,0-.39,0-.53,0-1.05.04-2.11.07-3.16.16-.81.06-1.62.17-2.41.35-.9.22-1.54.81-1.77,1.7-.36,1.37-.37,2.74.03,4.11.28.94.97,1.45,1.97,1.64.79.15,1.58.08,2.36-.03,1.06-.13,2.12-.37,3.08-.85.32-.16.44-.35.43-.69-.02-1.28,0-2.56,0-3.84v-2.54Z"/>
    <path class="cls-2" d="M172.34,11.26c-.04,3.59-.19,7.1-.72,10.65-.38-.04-.72-.08-1.07-.11-1.47-.13-2.94-.26-4.41-.38-.26-.02-.52.02-.78.05-.7.11-1.19.46-1.38,1.1-.13.4-.25.82-.26,1.23-.03,1.2,0,2.4,0,3.67.71.06,1.4.02,2.1.03.72,0,1.46,0,2.18,0h4.27c0,3.53-.2,6.98-.71,10.5-2.6.02-5.19,0-7.84.01v28.95h-13.12v-28.93h-4.51v-10.52h4.49v-.8c0-1.49-.02-2.98.25-4.46,1.04-5.62,5.22-9.85,11.02-11.14,2.18-.48,4.38-.44,6.57-.3,1.09.06,2.19.19,3.28.3.21.02.41.09.63.14"/>
    <path class="cls-2" d="M225.71,28.73c-.57,3.74-1.5,7.44-2.8,11.13-.31-.1-.54-.17-.78-.26-1.96-.71-3.95-1.3-6.04-1.53-1.19-.14-2.37-.16-3.54.16-1.54.42-2.67,1.31-3.22,2.76-.31.84-.56,1.73-.67,2.62-.32,2.6-.32,5.2.1,7.79.1.6.27,1.19.46,1.77.65,1.94,2.06,2.99,4.18,3.26,2.03.27,4,.12,5.91-.56,1.18-.42,2.32-.92,3.47-1.38.22-.09.43-.21.71-.34,1.28,3.7,2.15,7.42,2.73,11.29-.37.16-.71.33-1.07.47-2.11.76-4.29,1.28-6.51,1.59-3.75.55-7.46.34-11.12-.6-3.03-.77-5.73-2.15-7.96-4.29-2.1-2.02-3.37-4.49-4.12-7.22-.48-1.71-.72-3.45-.84-5.22-.17-2.43-.08-4.83.3-7.23.64-4.06,2.18-7.75,5.1-10.81,2.56-2.7,5.8-4.25,9.51-4.95,2.51-.48,5.03-.47,7.56-.28,2.73.21,5.41.69,8,1.53.17.06.33.12.49.18.04.02.07.05.16.14"/>
    <path class="cls-2" d="M122.46,28.65c-.6,3.84-1.53,7.55-2.82,11.22-.33-.11-.58-.2-.82-.29-1.94-.7-3.91-1.29-5.98-1.51-1.19-.14-2.37-.16-3.54.16-1.55.41-2.63,1.31-3.24,2.73-.48,1.1-.66,2.27-.78,3.44-.21,2.14-.18,4.28.12,6.41.11.76.29,1.53.53,2.26.64,2.04,2.12,3.09,4.32,3.36,2.29.28,4.48-.03,6.59-.85,1.12-.43,2.23-.91,3.4-1.4,1.25,3.63,2.13,7.36,2.71,11.23-.33.15-.65.32-.99.45-1.94.71-3.95,1.18-5.99,1.53-1.94.33-3.89.45-5.85.35-2.61-.12-5.17-.51-7.63-1.4-5.39-1.94-8.84-5.57-10.32-10.89-.79-2.87-1.01-5.8-.91-8.75.09-2.75.46-5.44,1.44-8.04,1.01-2.69,2.45-5.12,4.59-7.13,2.5-2.34,5.52-3.72,8.92-4.37,2.51-.48,5.03-.47,7.57-.28,2.7.21,5.36.67,7.94,1.51.23.08.45.16.75.26"/>
    <path class="cls-2" d="M175.94,27.54h12.96c.15.45.19,38.51.06,39.39-.48.12-11.89.16-12.98.05-.13-.44-.18-38.43-.04-39.44"/>
    <rect class="cls-1" x="128.07" y="27.54" width="13.07" height="39.44"/>
    <path class="cls-2" d="M134.59,23.96c-.74-.1-1.49-.12-2.22-.29-2.61-.57-4.13-2.25-4.75-4.64-.61-2.41.04-4.58,1.76-6.44.87-.93,1.98-1.45,3.25-1.69,1.26-.24,2.54-.24,3.8-.04,1.96.29,3.41,1.28,4.37,2.92,1.05,1.75,1.28,3.61.74,5.53-.75,2.64-2.83,4.26-5.76,4.53-.4.03-.79.03-1.19.05,0,.02,0,.03,0,.06"/>
    <path class="cls-2" d="M182.42,23.95c-.72-.09-1.45-.11-2.15-.25-2.62-.55-4.16-2.22-4.79-4.61-.65-2.46.02-4.66,1.79-6.54.81-.87,1.88-1.38,3.07-1.62,1.28-.27,2.58-.26,3.87-.08,2.12.31,3.65,1.4,4.58,3.22,1.24,2.43,1.19,4.83-.32,7.14-1.11,1.7-2.83,2.45-4.86,2.65-.39.03-.79.03-1.19.05,0,.02,0,.03,0,.05"/>
  </g>
  <g>
    <path class="cls-1" d="M23.4,83.56l-1.09.84c-.6-.78-1.32-1.38-2.17-1.78-.84-.4-1.77-.61-2.78-.61-1.1,0-2.12.26-3.06.79-.94.53-1.67,1.24-2.18,2.13s-.78,1.9-.78,3.01c0,1.69.58,3.09,1.73,4.22,1.15,1.13,2.61,1.69,4.37,1.69,1.94,0,3.55-.76,4.86-2.28l1.09.83c-.69.88-1.55,1.56-2.58,2.03-1.03.48-2.18.72-3.45.72-2.42,0-4.32-.81-5.72-2.42-1.17-1.36-1.76-3-1.76-4.92,0-2.02.71-3.72,2.13-5.11,1.42-1.38,3.2-2.07,5.33-2.07,1.29,0,2.45.25,3.49.77,1.04.51,1.89,1.23,2.55,2.15Z"/>
    <path class="cls-1" d="M34.19,80.65c2.09,0,3.84.7,5.26,2.1,1.41,1.4,2.12,3.12,2.12,5.16s-.7,3.74-2.11,5.15c-1.41,1.41-3.12,2.11-5.15,2.11s-3.78-.7-5.19-2.1c-1.41-1.4-2.12-3.1-2.12-5.09,0-1.33.32-2.56.96-3.69.64-1.14,1.52-2.02,2.63-2.66,1.11-.64,2.31-.96,3.6-.96ZM34.25,82c-1.02,0-1.99.27-2.91.8-.92.53-1.63,1.25-2.15,2.15-.51.9-.77,1.91-.77,3.02,0,1.64.57,3.03,1.71,4.16,1.14,1.13,2.51,1.7,4.12,1.7,1.07,0,2.06-.26,2.98-.78.91-.52,1.63-1.23,2.14-2.14.51-.9.77-1.9.77-3.01s-.26-2.09-.77-2.98c-.51-.89-1.23-1.6-2.16-2.13-.93-.53-1.91-.8-2.95-.8Z"/>
    <path class="cls-1" d="M45.78,94.82v-13.82h.3l9.2,10.59v-10.59h1.36v13.82h-.31l-9.12-10.46v10.46h-1.43Z"/>
    <path class="cls-1" d="M60.4,81h1.5l4.58,10.68,4.65-10.68h1.5l-6.01,13.82h-.3l-5.93-13.82Z"/>
    <path class="cls-1" d="M76.2,81h1.38v13.82h-1.38v-13.82Z"/>
    <path class="cls-1" d="M82.27,81h2.75c1.53,0,2.57.06,3.12.19.82.19,1.49.59,2,1.21.51.62.77,1.38.77,2.28,0,.75-.18,1.41-.53,1.98-.35.57-.86,1-1.52,1.29-.66.29-1.57.44-2.72.45l4.97,6.42h-1.71l-4.97-6.42h-.78v6.42h-1.38v-13.82ZM83.65,82.35v4.7l2.38.02c.92,0,1.6-.09,2.05-.26.44-.17.79-.46,1.03-.84.25-.38.37-.82.37-1.29s-.12-.88-.38-1.26-.58-.65-.99-.81-1.09-.24-2.03-.24h-2.44Z"/>
    <path class="cls-1" d="M93.94,82.35v-1.35h7.57v1.35h-3.08v12.47h-1.41v-12.47h-3.08Z"/>
    <path class="cls-1" d="M104.75,81h1.38v13.82h-1.38v-13.82Z"/>
    <path class="cls-1" d="M110.75,81h7.92v1.35h-6.54v4.33h6.48v1.35h-6.48v5.43h6.48v1.35h-7.86v-13.82Z"/>
    <path class="cls-1" d="M122.51,94.82v-13.82h.3l9.2,10.59v-10.59h1.36v13.82h-.31l-9.12-10.46v10.46h-1.43Z"/>
    <path class="cls-1" d="M138.17,94.82v-13.82h2.86c2.07,0,3.57.17,4.5.5,1.34.47,2.39,1.28,3.14,2.44.75,1.16,1.13,2.54,1.13,4.14,0,1.38-.3,2.6-.9,3.65-.6,1.05-1.37,1.83-2.33,2.33-.96.5-2.29.75-4.02.75h-4.4ZM139.5,93.51h1.6c1.91,0,3.24-.12,3.97-.36,1.04-.34,1.86-.95,2.45-1.82.6-.88.89-1.95.89-3.23s-.32-2.47-.97-3.41c-.65-.95-1.54-1.59-2.7-1.94-.86-.26-2.29-.39-4.27-.39h-.98v11.16Z"/>
    <path class="cls-1" d="M160.51,80.65c2.09,0,3.84.7,5.26,2.1,1.41,1.4,2.12,3.12,2.12,5.16s-.7,3.74-2.11,5.15c-1.41,1.41-3.12,2.11-5.15,2.11s-3.78-.7-5.19-2.1c-1.41-1.4-2.12-3.1-2.12-5.09,0-1.33.32-2.56.96-3.69.64-1.14,1.52-2.02,2.63-2.66,1.11-.64,2.31-.96,3.6-.96ZM160.57,82c-1.02,0-1.99.27-2.91.8-.92.53-1.63,1.25-2.15,2.15-.51.9-.77,1.91-.77,3.02,0,1.64.57,3.03,1.71,4.16,1.14,1.13,2.51,1.7,4.12,1.7,1.07,0,2.06-.26,2.98-.78.91-.52,1.63-1.23,2.14-2.14.51-.9.77-1.9.77-3.01s-.26-2.09-.77-2.98c-.51-.89-1.23-1.6-2.16-2.13-.93-.53-1.91-.8-2.95-.8Z"/>
    <path class="cls-1" d="M177.81,81h1.5l4.58,10.68,4.65-10.68h1.5l-6.01,13.82h-.3l-5.93-13.82Z"/>
    <path class="cls-1" d="M193.62,81h1.38v13.82h-1.38v-13.82Z"/>
    <path class="cls-1" d="M205.26,81l6.44,13.82h-1.49l-2.17-4.55h-5.95l-2.15,4.55h-1.54l6.53-13.82h.34ZM205.08,83.94l-2.37,5h4.72l-2.36-5Z"/>
    <path class="cls-1" d="M219.81,81h1.38v9.33c0,1.43-.11,2.43-.33,2.99-.22.56-.59,1.01-1.11,1.34-.52.34-1.15.5-1.89.5-.56,0-1.11-.11-1.65-.33-.54-.22-1.14-.6-1.8-1.14l.73-1.1c.72.51,1.32.86,1.8,1.07.31.14.62.21.92.21.4,0,.75-.12,1.08-.36.32-.24.55-.55.68-.95s.19-1.16.19-2.29v-9.28Z"/>
    <path class="cls-1" d="M226.01,81h7.92v1.35h-6.54v4.33h6.48v1.35h-6.48v5.43h6.48v1.35h-7.86v-13.82Z"/>
    <path class="cls-1" d="M236.33,92.25l1.17-.71c.83,1.52,1.78,2.28,2.86,2.28.46,0,.9-.11,1.31-.32.41-.22.72-.51.93-.87.21-.36.32-.75.32-1.16,0-.46-.16-.92-.47-1.36-.43-.61-1.22-1.35-2.37-2.22-1.15-.87-1.87-1.5-2.15-1.89-.49-.65-.73-1.35-.73-2.11,0-.6.14-1.15.43-1.64.29-.49.69-.88,1.22-1.17s1.09-.43,1.7-.43c.65,0,1.26.16,1.83.48.57.32,1.17.92,1.8,1.78l-1.13.86c-.52-.69-.96-1.15-1.33-1.36-.37-.22-.77-.33-1.2-.33-.56,0-1.01.17-1.37.51-.35.34-.53.75-.53,1.25,0,.3.06.59.19.87.12.28.35.59.69.92.18.18.78.63,1.78,1.38,1.2.88,2.02,1.67,2.46,2.36.44.69.67,1.38.67,2.08,0,1-.38,1.87-1.14,2.61-.76.74-1.69,1.11-2.78,1.11-.84,0-1.6-.23-2.28-.67-.68-.45-1.31-1.2-1.89-2.25Z"/>
    <path class="cls-1" d="M255.56,81h7.92v1.35h-6.54v4.33h6.48v1.35h-6.48v5.43h6.48v1.35h-7.86v-13.82Z"/>
    <path class="cls-1" d="M267.32,94.82v-13.82h.3l9.2,10.59v-10.59h1.36v13.82h-.31l-9.12-10.46v10.46h-1.43Z"/>
    <path class="cls-1" d="M289.73,81h1.38v5.8h7.04v-5.8h1.38v13.82h-1.38v-6.67h-7.04v6.67h-1.38v-13.82Z"/>
    <path class="cls-1" d="M304.14,81h1.38v13.82h-1.38v-13.82Z"/>
    <path class="cls-1" d="M308.7,92.25l1.17-.71c.83,1.52,1.78,2.28,2.86,2.28.46,0,.9-.11,1.31-.32.41-.22.72-.51.93-.87s.32-.75.32-1.16c0-.46-.16-.92-.47-1.36-.43-.61-1.22-1.35-2.37-2.22-1.15-.87-1.87-1.5-2.15-1.89-.49-.65-.73-1.35-.73-2.11,0-.6.14-1.15.43-1.64s.69-.88,1.22-1.17,1.09-.43,1.7-.43c.65,0,1.26.16,1.83.48.57.32,1.17.92,1.8,1.78l-1.13.86c-.52-.69-.96-1.15-1.33-1.36s-.77-.33-1.2-.33c-.56,0-1.01.17-1.37.51s-.53.75-.53,1.25c0,.3.06.59.19.87.12.28.35.59.69.92.18.18.78.63,1.78,1.38,1.2.88,2.02,1.67,2.46,2.36.44.69.67,1.38.67,2.08,0,1-.38,1.87-1.14,2.61-.76.74-1.69,1.11-2.78,1.11-.84,0-1.6-.23-2.28-.67-.68-.45-1.31-1.2-1.89-2.25Z"/>
    <path class="cls-1" d="M319.78,82.35v-1.35h7.57v1.35h-3.08v12.47h-1.41v-12.47h-3.08Z"/>
    <path class="cls-1" d="M337.37,80.65c2.09,0,3.84.7,5.26,2.1,1.41,1.4,2.12,3.12,2.12,5.16s-.7,3.74-2.11,5.15c-1.41,1.41-3.12,2.11-5.15,2.11s-3.78-.7-5.19-2.1c-1.41-1.4-2.12-3.1-2.12-5.09,0-1.33.32-2.56.96-3.69.64-1.14,1.52-2.02,2.63-2.66,1.11-.64,2.31-.96,3.6-.96ZM337.43,82c-1.02,0-1.99.27-2.91.8-.92.53-1.63,1.25-2.15,2.15-.51.9-.77,1.91-.77,3.02,0,1.64.57,3.03,1.71,4.16,1.14,1.13,2.51,1.7,4.12,1.7,1.07,0,2.06-.26,2.98-.78.91-.52,1.63-1.23,2.14-2.14.51-.9.77-1.9.77-3.01s-.26-2.09-.77-2.98c-.51-.89-1.23-1.6-2.16-2.13-.93-.53-1.91-.8-2.95-.8Z"/>
    <path class="cls-1" d="M349.03,81h2.75c1.53,0,2.57.06,3.12.19.82.19,1.49.59,2,1.21.51.62.77,1.38.77,2.28,0,.75-.18,1.41-.53,1.98s-.86,1-1.52,1.29-1.57.44-2.72.45l4.97,6.42h-1.71l-4.97-6.42h-.78v6.42h-1.38v-13.82ZM350.41,82.35v4.7l2.38.02c.92,0,1.6-.09,2.05-.26.44-.17.79-.46,1.03-.84.25-.38.37-.82.37-1.29s-.12-.88-.38-1.26c-.25-.38-.58-.65-.99-.81s-1.09-.24-2.03-.24h-2.44Z"/>
    <path class="cls-1" d="M361.88,81h1.38v13.82h-1.38v-13.82Z"/>
    <path class="cls-1" d="M373.51,81l6.44,13.82h-1.49l-2.17-4.55h-5.95l-2.15,4.55h-1.54l6.53-13.82h.34ZM373.34,83.94l-2.37,5h4.72l-2.36-5Z"/>
    <path class="cls-1" d="M382.11,92.25l1.17-.71c.83,1.52,1.78,2.28,2.86,2.28.46,0,.9-.11,1.31-.32.41-.22.72-.51.93-.87.21-.36.32-.75.32-1.16,0-.46-.16-.92-.47-1.36-.43-.61-1.22-1.35-2.37-2.22-1.15-.87-1.87-1.5-2.15-1.89-.49-.65-.73-1.35-.73-2.11,0-.6.14-1.15.43-1.64.29-.49.69-.88,1.22-1.17.52-.29,1.09-.43,1.7-.43.65,0,1.26.16,1.83.48.57.32,1.17.92,1.8,1.78l-1.13.86c-.52-.69-.96-1.15-1.33-1.36-.37-.22-.77-.33-1.2-.33-.56,0-1.01.17-1.37.51s-.53.75-.53,1.25c0,.3.06.59.19.87.12.28.35.59.69.92.18.18.78.63,1.78,1.38,1.2.88,2.02,1.67,2.46,2.36.44.69.67,1.38.67,2.08,0,1-.38,1.87-1.14,2.61-.76.74-1.69,1.11-2.78,1.11-.84,0-1.6-.23-2.28-.67-.68-.45-1.31-1.2-1.89-2.25Z"/>
  </g>
</svg>